<svg id="Layer_1" height="512" viewBox="0 0 50 50" width="512" xmlns="http://www.w3.org/2000/svg"><g><g><g><g><g><path d="m33.4 42.5c-.4 0-.8-.3-.8-.8s.4-.7.8-.7c.7 0 1.4-.3 2-.8.5-.5.7-1.2.7-1.9v-13.6c0-.4.3-.8.8-.8s.8.3.8.8v13.6c0 1.2-.4 2.3-1.2 3-1 .9-2 1.2-3.1 1.2z" fill="rgb(255,255,255)"/></g><g><path d="m5.3 36.5c-.4 0-.8-.3-.8-.8v-27.1c0-1.5 1.2-2.6 2.7-2.6h27.8c1.5 0 2.7 1.2 2.7 2.6v9.6c0 .4-.3.8-.8.8s-.8-.3-.8-.8v-9.6c0-.7-.6-1.1-1.2-1.1h-27.7c-.7 0-1.2.5-1.2 1.1v27.2c0 .4-.3.7-.7.7z" fill="rgb(255,255,255)"/></g><g><path d="m33.4 42.5c0 .1 0 .1 0 0h-28.1c-2.3 0-4.3-1.9-4.3-4.2v-.6c0-1.5 1.2-2.7 2.7-2.7h24.3c1.5 0 2.7 1.2 2.7 2.7v.6c0 .7.2 1.4.7 1.9.5.6 1.3.9 2.1.9.4 0 .8.3.8.8s-.5.6-.9.6zm-29.7-6c-.7 0-1.2.6-1.2 1.2v.6c0 1.5 1.3 2.8 2.8 2.8h24.8c-.7-.8-1-1.8-1-2.8v-.6c0-.7-.6-1.2-1.2-1.2z" fill="rgb(255,255,255)"/></g></g><g><path d="m38.9 47.5h-28.3c-1.5 0-2.6-1.2-2.6-2.7v-3c0-.4.3-.8.7-.8s.8.3.8.8v3c0 .6.4 1.2 1.1 1.2h28.3c.6 0 1.1-.4 1.1-1.2v-25.3c0-.4.3-.8.8-.8s.8.3.8.8v25.3c-.1 1.5-1.2 2.7-2.7 2.7z" fill="rgb(255,255,255)"/></g><g><path d="m40.7 14.3c-.4 0-.8-.3-.8-.8v-4.9c0-.7-.6-1.1-1.2-1.1h-4.6c-.4 0-.8-.3-.8-.8s.5-.7.9-.7h4.6c1.5 0 2.7 1.2 2.7 2.6v4.9c0 .4-.4.8-.8.8z" fill="rgb(255,255,255)"/></g><g><path d="m10.8 10.9c-1.4 0-2.4-1.8-2.4-4.1 0-2.4 1-4.2 2.4-4.2s2.5 1.8 2.5 4.2c0 .4-.3.8-.8.8s-.8-.3-.8-.8c.1-1.8-.7-2.8-.9-2.8-.3 0-.9 1-.9 2.7s.7 2.6.9 2.6c.4 0 .8.3.8.8s-.4.8-.8.8z" fill="rgb(255,255,255)"/></g><g><path d="m17.5 10.9c-1.4 0-2.5-1.8-2.5-4.1 0-2.4 1-4.2 2.5-4.2 1.4 0 2.5 1.8 2.5 4.2 0 .4-.3.8-.8.8s-.8-.3-.8-.8c0-1.7-.7-2.7-1-2.7s-1 .9-1 2.7c0 1.7.7 2.6 1 2.6.4 0 .8.3.8.8s-.3.7-.7.7z" fill="rgb(255,255,255)"/></g><g><path d="m24.2 10.9c-1.4 0-2.5-1.8-2.5-4.1 0-2.4 1-4.2 2.5-4.2 1.4 0 2.5 1.8 2.5 4.2 0 .4-.3.8-.8.8s-.8-.3-.8-.8c0-1.7-.7-2.7-1-2.7s-1 .9-1 2.7c0 1.7.7 2.6 1 2.6.4 0 .8.3.8.8s-.3.7-.7.7z" fill="rgb(255,255,255)"/></g><g><path d="m30.8 10.9c-1.4 0-2.5-1.8-2.5-4.1 0-2.4 1-4.2 2.5-4.2 1.4 0 2.5 1.8 2.5 4.2 0 .4-.3.8-.8.8s-.8-.3-.8-.8c.1-1.8-.7-2.8-.9-2.8-.3 0-1 .9-1 2.7 0 1.7.7 2.6 1 2.6.4 0 .8.3.8.8s-.4.8-.8.8z" fill="rgb(255,255,255)"/></g></g><g><g><path d="m30.3 30.5c-.2 0-.3-.1-.5-.2s-.3-.3-.3-.5l-.3-2.5c0-.2 0-.4.2-.5l15-19.3c.8-1.1 2.4-1.3 3.5-.4.5.4.9 1 1 1.7s-.1 1.3-.5 1.9l-15 19.2c-.1.1-.3.2-.5.3l-2.5.4c0-.1-.1-.1-.1-.1zm.5-3 .2 1.4 1.4-.2 14.8-19c.2-.2.3-.5.2-.8 0-.2-.1-.5-.4-.7-.5-.4-1.1-.3-1.5.1z" fill="rgb(255,255,255)"/></g><g><path d="m29.2 32c-.2 0-.3 0-.4-.1-.3-.2-.4-.7-.2-1l1.1-1.5c.2-.3.7-.4 1-.2s.4.7.2 1l-1.1 1.5c-.1.2-.4.3-.6.3z" fill="rgb(255,255,255)"/></g><g><path d="m44.1 22.8c-.2 0-.3 0-.4-.1-.5-.4-.8-.9-.9-1.5s.1-1.2.5-1.7l3.4-4.4c.2-.3.3-.6.3-.9s-.2-.6-.5-.8l-3.5-2.8c-.3-.3-.4-.7-.1-1.1.3-.3.7-.4 1.1-.1l3.4 2.7c.6.5 1 1.1 1 1.8.1.7-.1 1.4-.6 2l-3.4 4.4c-.1.2-.2.3-.1.5 0 .1.1.3.3.5.3.2.4.7.2 1s-.5.5-.7.5z" fill="rgb(255,255,255)"/></g><g><path d="m35 27.5c-.2 0-.3-.1-.5-.2l-2.8-2.2c-.3-.3-.4-.7-.1-1.1.3-.3.7-.4 1.1-.1l2.8 2.2c.3.3.4.7.1 1.1-.2.2-.4.3-.6.3z" fill="rgb(255,255,255)"/></g></g></g><g><g><path d="m17.5 31.3c-4.7 0-8.5-3.8-8.5-8.5s3.8-8.5 8.5-8.5 8.5 3.8 8.5 8.5-3.8 8.5-8.5 8.5zm0-15.5c-3.9 0-7 3.2-7 7 0 3.9 3.2 7 7 7s7-3.2 7-7c0-3.9-3.1-7-7-7z" fill="rgb(255,255,255)"/></g><g><g><path d="m18.9 23.5h-2.7c-1.5 0-2.7-1.2-2.7-2.6s1.2-2.6 2.7-2.6h2.7c1.5 0 2.6 1.2 2.6 2.6 0 .4-.3.8-.8.8s-.7-.4-.7-.8c0-.6-.4-1.1-1.1-1.1h-2.7c-.6 0-1.2.4-1.2 1.1 0 .6.4 1.1 1.2 1.1h2.7c.4 0 .8.3.8.8s-.4.7-.8.7z" fill="rgb(255,255,255)"/></g><g><path d="m18.8 27.3h-2.7c-1.5 0-2.6-1.2-2.6-2.6 0-.4.3-.8.8-.8s.8.3.8.8c0 .6.4 1.1 1.1 1.1h2.7c.6 0 1.2-.4 1.2-1.1 0-.6-.4-1.2-1.2-1.2h-2.7c-.4 0-.8-.3-.8-.8s.3-.8.8-.8h2.7c1.5 0 2.7 1.2 2.7 2.7-.1 1.6-1.3 2.7-2.8 2.7z" fill="rgb(255,255,255)"/></g></g><g><g><path d="m17.5 19.8c-.4 0-.8-.3-.8-.8v-1.1c0-.4.3-.8.8-.8s.8.3.8.8v1.1c0 .4-.4.8-.8.8z" fill="rgb(255,255,255)"/></g><g><path d="m17.5 28.5c-.4 0-.8-.3-.8-.8v-1.1c0-.4.3-.8.8-.8s.8.3.8.8v1.1c0 .4-.4.8-.8.8z" fill="rgb(255,255,255)"/></g></g></g></g></svg>